<svg xmlns="http://www.w3.org/2000/svg" width="1440" height="1140" viewBox="0 0 1440 1140">
<rect width="1440" height="1140" fill="#0e1013"/>
<rect x="28" y="74" width="405" height="225" rx="12" fill="#1b1e24" stroke="#353b47"/>
<rect x="449" y="74" width="446" height="225" rx="12" fill="#1b1e24" stroke="#353b47"/>
<rect x="911" y="74" width="501" height="225" rx="12" fill="#1b1e24" stroke="#353b47"/>
<text x="30" y="44" fill="rgb(237,240,245)" font-size="25" font-weight="700" font-family="Arial">VON WEBERN</text>
<text x="222" y="42" fill="rgb(156,166,184)" font-size="12" font-weight="400" font-family="Arial">research-informed score generator / op. 10</text>
<text x="1132" y="40" fill="rgb(156,166,184)" font-size="10" font-weight="400" font-family="Arial">(c) Dmitrii Shchukin 2026</text>
<text x="48" y="106" fill="rgb(232,156,61)" font-size="14" font-weight="700" font-family="Arial">MATERIAL</text>
<text x="469" y="106" fill="rgb(66,135,184)" font-size="14" font-weight="700" font-family="Arial">ACTIVITY / TIME</text>
<text x="931" y="106" fill="rgb(232,156,61)" font-size="14" font-weight="700" font-family="Arial">DYNAMICS / TIME</text>
<text x="48" y="138" fill="rgb(156,166,184)" font-size="11" font-weight="400" font-family="Arial">Profile</text>
<rect x="112" y="123" width="297" height="24" rx="4" fill="#292c33" stroke="#3a404b"/><text x="120" y="139" fill="#eef0f4" font-size="11" font-family="Arial">Op.10 synthesis</text>
<text x="48" y="172" fill="rgb(156,166,184)" font-size="11" font-weight="400" font-family="Arial">Seed</text>
<rect x="104" y="157" width="66" height="24" rx="4" fill="#292c33" stroke="#3a404b"/><text x="112" y="173" fill="#eef0f4" font-size="11" font-family="Arial">1913</text>
<text x="183" y="172" fill="rgb(156,166,184)" font-size="11" font-weight="400" font-family="Arial">Events</text>
<rect x="240" y="157" width="55" height="24" rx="4" fill="#292c33" stroke="#3a404b"/><text x="248" y="173" fill="#eef0f4" font-size="11" font-family="Arial">25</text>
<text x="307" y="172" fill="rgb(156,166,184)" font-size="11" font-weight="400" font-family="Arial">BPM</text>
<rect x="349" y="157" width="60" height="24" rx="4" fill="#292c33" stroke="#3a404b"/><text x="357" y="173" fill="#eef0f4" font-size="11" font-family="Arial">60</text>
<text x="48" y="206" fill="rgb(156,166,184)" font-size="11" font-weight="400" font-family="Arial">Texture density</text>
<rect x="145" y="191" width="60" height="24" rx="4" fill="#292c33" stroke="#3a404b"/><text x="153" y="207" fill="#eef0f4" font-size="11" font-family="Arial">0.45</text>
<rect x="48" y="235" width="220" height="42" rx="8" fill="rgb(143,79,28)"/><text x="158" y="261" fill="#fff" text-anchor="middle" font-size="13" font-weight="700" font-family="Arial">1  GENERATE MATERIAL</text>
<rect x="278" y="235" width="131" height="42" rx="8" fill="rgb(48,102,135)"/><text x="343.5" y="261" fill="#fff" text-anchor="middle" font-size="13" font-weight="700" font-family="Arial">2  BUILD SCORE</text>
<text x="469" y="129" fill="rgb(156,166,184)" font-size="10" font-weight="400" font-family="Arial">low = spacious / high = rapid</text>
<rect x="469" y="140" width="406" height="118" rx="5" fill="#14171c" stroke="#353b47"/><polyline points="469,229.68 639.52,196.64 761.3199999999999,213.16 875,234.4" fill="none" stroke="rgb(66,135,184)" stroke-width="3"/><circle cx="469" cy="229.68" r="5" fill="#f6f6f4"/><circle cx="639.52" cy="196.64" r="5" fill="#f6f6f4"/><circle cx="761.3199999999999" cy="213.16" r="5" fill="#f6f6f4"/><circle cx="875" cy="234.4" r="5" fill="#f6f6f4"/>
<text x="469" y="275" fill="rgb(156,166,184)" font-size="9" font-weight="400" font-family="Arial">beginning</text>
<text x="827" y="275" fill="rgb(156,166,184)" font-size="9" font-weight="400" font-family="Arial">ending</text>
<text x="931" y="129" fill="rgb(156,166,184)" font-size="10" font-weight="400" font-family="Arial">x = time · y = exact dynamic level</text>
<rect x="968" y="140" width="424" height="118" rx="5" fill="#14171c" stroke="#353b47"/><polyline points="968,239.12 1213.92,194.28 1298.72,215.52 1392,236.76" fill="none" stroke="rgb(232,156,61)" stroke-width="3"/><circle cx="968" cy="239.12" r="5" fill="#f6f6f4"/><circle cx="1213.92" cy="194.28" r="5" fill="#f6f6f4"/><circle cx="1298.72" cy="215.52" r="5" fill="#f6f6f4"/><circle cx="1392" cy="236.76" r="5" fill="#f6f6f4"/>
<text x="936" y="147" fill="rgb(156,166,184)" font-size="9" font-weight="400" font-family="Arial">fff</text>
<text x="932" y="251" fill="rgb(156,166,184)" font-size="9" font-weight="400" font-family="Arial">pppp</text>
<text x="968" y="275" fill="rgb(156,166,184)" font-size="9" font-weight="400" font-family="Arial">beginning</text>
<text x="1344" y="275" fill="rgb(156,166,184)" font-size="9" font-weight="400" font-family="Arial">ending</text>
<text x="31" y="323" fill="rgb(232,156,61)" font-size="11" font-weight="700" font-family="Arial">REALIZED ROW</text>
<rect x="126" y="307" width="467" height="27" rx="4" fill="#292c33" stroke="#3a404b"/><text x="134" y="324.5" fill="#eef0f4" font-size="11" font-family="Arial">-</text>
<text x="618" y="323" fill="rgb(66,135,184)" font-size="11" font-weight="700" font-family="Arial">STATUS</text>
<rect x="675" y="307" width="439" height="27" rx="4" fill="#292c33" stroke="#3a404b"/><text x="683" y="324.5" fill="#eef0f4" font-size="11" font-family="Arial">ready</text>
<rect x="1120" y="306" width="70" height="29" rx="8" fill="rgb(163,64,64)"/><text x="1155" y="325.5" fill="#fff" text-anchor="middle" font-size="13" font-weight="700" font-family="Arial">CLEAR</text>
<rect x="1198" y="306" width="52" height="29" rx="8" fill="rgb(51,99,69)"/><text x="1224" y="325.5" fill="#fff" text-anchor="middle" font-size="13" font-weight="700" font-family="Arial">PLAY</text>
<rect x="1258" y="306" width="52" height="29" rx="8" fill="rgb(71,74,82)"/><text x="1284" y="325.5" fill="#fff" text-anchor="middle" font-size="13" font-weight="700" font-family="Arial">STOP</text>
<rect x="1318" y="306" width="94" height="29" rx="8" fill="rgb(143,79,28)"/><text x="1365" y="325.5" fill="#fff" text-anchor="middle" font-size="13" font-weight="700" font-family="Arial">EXPORT XML</text>
<rect x="28" y="348" width="1384" height="62" rx="12" fill="#1b1e24" stroke="#353b47"/>
<text x="45" y="368" fill="rgb(66,135,184)" font-size="11" font-weight="700" font-family="Arial">PERSONA / DECISION BIASES</text>
<text x="45" y="389" fill="rgb(156,166,184)" font-size="9" font-weight="400" font-family="Arial">0–1 · coherence, transformation, colour, symmetry and breath</text>
<text x="390" y="367" fill="rgb(156,166,184)" font-size="10" font-weight="400" font-family="Arial">Coherence</text>
<rect x="390" y="377" width="64" height="22" rx="4" fill="#292c33" stroke="#3a404b"/><text x="398" y="392" fill="#eef0f4" font-size="11" font-family="Arial">0.78</text>
<text x="480" y="367" fill="rgb(156,166,184)" font-size="10" font-weight="400" font-family="Arial">Metamorphosis</text>
<rect x="480" y="377" width="64" height="22" rx="4" fill="#292c33" stroke="#3a404b"/><text x="488" y="392" fill="#eef0f4" font-size="11" font-family="Arial">0.62</text>
<text x="580" y="367" fill="rgb(156,166,184)" font-size="10" font-weight="400" font-family="Arial">Timbral contrast</text>
<rect x="580" y="377" width="64" height="22" rx="4" fill="#292c33" stroke="#3a404b"/><text x="588" y="392" fill="#eef0f4" font-size="11" font-family="Arial">0.72</text>
<text x="700" y="367" fill="rgb(156,166,184)" font-size="10" font-weight="400" font-family="Arial">Symmetry</text>
<rect x="700" y="377" width="64" height="22" rx="4" fill="#292c33" stroke="#3a404b"/><text x="708" y="392" fill="#eef0f4" font-size="11" font-family="Arial">0.68</text>
<text x="790" y="367" fill="rgb(156,166,184)" font-size="10" font-weight="400" font-family="Arial">Silence</text>
<rect x="790" y="377" width="64" height="22" rx="4" fill="#292c33" stroke="#3a404b"/><text x="798" y="392" fill="#eef0f4" font-size="11" font-family="Arial">0.55</text>
<text x="880" y="367" fill="rgb(156,166,184)" font-size="10" font-weight="400" font-family="Arial">Lyrical breath</text>
<rect x="880" y="377" width="64" height="22" rx="4" fill="#292c33" stroke="#3a404b"/><text x="888" y="392" fill="#eef0f4" font-size="11" font-family="Arial">0.8</text>
<rect x="28" y="420" width="1384" height="700" rx="4" fill="#fbfbf7" stroke="#464b54"/><text x="40" y="452" fill="#353535" font-size="10" font-family="Arial">Flute</text><line x1="120" y1="440" x2="1398" y2="440" stroke="#777" stroke-width="0.65"/><line x1="120" y1="443" x2="1398" y2="443" stroke="#777" stroke-width="0.65"/><line x1="120" y1="446" x2="1398" y2="446" stroke="#777" stroke-width="0.65"/><line x1="120" y1="449" x2="1398" y2="449" stroke="#777" stroke-width="0.65"/><line x1="120" y1="452" x2="1398" y2="452" stroke="#777" stroke-width="0.65"/><text x="40" y="518.2" fill="#353535" font-size="10" font-family="Arial">Clarinet</text><line x1="120" y1="506.2" x2="1398" y2="506.2" stroke="#777" stroke-width="0.65"/><line x1="120" y1="509.2" x2="1398" y2="509.2" stroke="#777" stroke-width="0.65"/><line x1="120" y1="512.2" x2="1398" y2="512.2" stroke="#777" stroke-width="0.65"/><line x1="120" y1="515.2" x2="1398" y2="515.2" stroke="#777" stroke-width="0.65"/><line x1="120" y1="518.2" x2="1398" y2="518.2" stroke="#777" stroke-width="0.65"/><text x="40" y="584.4" fill="#353535" font-size="10" font-family="Arial">Trumpet</text><line x1="120" y1="572.4" x2="1398" y2="572.4" stroke="#777" stroke-width="0.65"/><line x1="120" y1="575.4" x2="1398" y2="575.4" stroke="#777" stroke-width="0.65"/><line x1="120" y1="578.4" x2="1398" y2="578.4" stroke="#777" stroke-width="0.65"/><line x1="120" y1="581.4" x2="1398" y2="581.4" stroke="#777" stroke-width="0.65"/><line x1="120" y1="584.4" x2="1398" y2="584.4" stroke="#777" stroke-width="0.65"/><text x="40" y="650.6" fill="#353535" font-size="10" font-family="Arial">Trombone</text><line x1="120" y1="638.6" x2="1398" y2="638.6" stroke="#777" stroke-width="0.65"/><line x1="120" y1="641.6" x2="1398" y2="641.6" stroke="#777" stroke-width="0.65"/><line x1="120" y1="644.6" x2="1398" y2="644.6" stroke="#777" stroke-width="0.65"/><line x1="120" y1="647.6" x2="1398" y2="647.6" stroke="#777" stroke-width="0.65"/><line x1="120" y1="650.6" x2="1398" y2="650.6" stroke="#777" stroke-width="0.65"/><text x="40" y="716.8" fill="#353535" font-size="10" font-family="Arial">Celesta</text><line x1="120" y1="704.8" x2="1398" y2="704.8" stroke="#777" stroke-width="0.65"/><line x1="120" y1="707.8" x2="1398" y2="707.8" stroke="#777" stroke-width="0.65"/><line x1="120" y1="710.8" x2="1398" y2="710.8" stroke="#777" stroke-width="0.65"/><line x1="120" y1="713.8" x2="1398" y2="713.8" stroke="#777" stroke-width="0.65"/><line x1="120" y1="716.8" x2="1398" y2="716.8" stroke="#777" stroke-width="0.65"/><text x="40" y="783" fill="#353535" font-size="10" font-family="Arial">Harp</text><line x1="120" y1="771" x2="1398" y2="771" stroke="#777" stroke-width="0.65"/><line x1="120" y1="774" x2="1398" y2="774" stroke="#777" stroke-width="0.65"/><line x1="120" y1="777" x2="1398" y2="777" stroke="#777" stroke-width="0.65"/><line x1="120" y1="780" x2="1398" y2="780" stroke="#777" stroke-width="0.65"/><line x1="120" y1="783" x2="1398" y2="783" stroke="#777" stroke-width="0.65"/><text x="40" y="849.2" fill="#353535" font-size="10" font-family="Arial">Glockenspiel</text><line x1="120" y1="837.2" x2="1398" y2="837.2" stroke="#777" stroke-width="0.65"/><line x1="120" y1="840.2" x2="1398" y2="840.2" stroke="#777" stroke-width="0.65"/><line x1="120" y1="843.2" x2="1398" y2="843.2" stroke="#777" stroke-width="0.65"/><line x1="120" y1="846.2" x2="1398" y2="846.2" stroke="#777" stroke-width="0.65"/><line x1="120" y1="849.2" x2="1398" y2="849.2" stroke="#777" stroke-width="0.65"/><text x="40" y="915.4000000000001" fill="#353535" font-size="10" font-family="Arial">Violin</text><line x1="120" y1="903.4000000000001" x2="1398" y2="903.4000000000001" stroke="#777" stroke-width="0.65"/><line x1="120" y1="906.4000000000001" x2="1398" y2="906.4000000000001" stroke="#777" stroke-width="0.65"/><line x1="120" y1="909.4000000000001" x2="1398" y2="909.4000000000001" stroke="#777" stroke-width="0.65"/><line x1="120" y1="912.4000000000001" x2="1398" y2="912.4000000000001" stroke="#777" stroke-width="0.65"/><line x1="120" y1="915.4000000000001" x2="1398" y2="915.4000000000001" stroke="#777" stroke-width="0.65"/><text x="40" y="981.6" fill="#353535" font-size="10" font-family="Arial">Viola</text><line x1="120" y1="969.6" x2="1398" y2="969.6" stroke="#777" stroke-width="0.65"/><line x1="120" y1="972.6" x2="1398" y2="972.6" stroke="#777" stroke-width="0.65"/><line x1="120" y1="975.6" x2="1398" y2="975.6" stroke="#777" stroke-width="0.65"/><line x1="120" y1="978.6" x2="1398" y2="978.6" stroke="#777" stroke-width="0.65"/><line x1="120" y1="981.6" x2="1398" y2="981.6" stroke="#777" stroke-width="0.65"/><text x="40" y="1047.8000000000002" fill="#353535" font-size="10" font-family="Arial">Violoncello</text><line x1="120" y1="1035.8000000000002" x2="1398" y2="1035.8000000000002" stroke="#777" stroke-width="0.65"/><line x1="120" y1="1038.8000000000002" x2="1398" y2="1038.8000000000002" stroke="#777" stroke-width="0.65"/><line x1="120" y1="1041.8000000000002" x2="1398" y2="1041.8000000000002" stroke="#777" stroke-width="0.65"/><line x1="120" y1="1044.8000000000002" x2="1398" y2="1044.8000000000002" stroke="#777" stroke-width="0.65"/><line x1="120" y1="1047.8000000000002" x2="1398" y2="1047.8000000000002" stroke="#777" stroke-width="0.65"/>
</svg>